<svg width="110" height="23" viewBox="0 0 110 23" fill="none" xmlns="http://www.w3.org/2000/svg">
<path d="M10.5137 22.1504L5.89372 14.4504H4.15772V22.1504H0.209717V2.3824H7.74172C10.0377 2.3824 11.7831 2.9424 12.9777 4.0624C14.1911 5.1824 14.7977 6.65706 14.7977 8.48639C14.7977 9.97973 14.3777 11.2304 13.5377 12.2384C12.7164 13.2464 11.5217 13.9184 9.95372 14.2544L14.8817 22.1504H10.5137ZM4.15772 11.7344H7.40572C9.66438 11.7344 10.7937 10.7357 10.7937 8.7384C10.7937 7.7864 10.5137 7.04906 9.95372 6.5264C9.41238 5.98506 8.56305 5.7144 7.40572 5.7144H4.15772V11.7344Z" fill="white"/>
<path d="M23.5396 6.44239C24.8463 6.44239 25.9663 6.75039 26.8996 7.3664C27.833 7.9824 28.4956 8.81306 28.8876 9.8584V6.6384H32.8076V22.1504H28.8876V18.9024C28.4956 19.9477 27.833 20.7877 26.8996 21.4224C25.9663 22.0384 24.8463 22.3464 23.5396 22.3464C22.233 22.3464 21.057 22.0291 20.0116 21.3944C18.9663 20.7597 18.145 19.8451 17.5476 18.6504C16.969 17.4371 16.6796 16.0184 16.6796 14.3944C16.6796 12.7704 16.969 11.3611 17.5476 10.1664C18.145 8.95306 18.9663 8.02906 20.0116 7.3944C21.057 6.75973 22.233 6.44239 23.5396 6.44239ZM24.7716 9.8864C23.5396 9.8864 22.5503 10.2877 21.8036 11.0904C21.057 11.8931 20.6836 12.9944 20.6836 14.3944C20.6836 15.7944 21.057 16.8957 21.8036 17.6984C22.5503 18.4824 23.5396 18.8744 24.7716 18.8744C25.9663 18.8744 26.9463 18.4731 27.7116 17.6704C28.4956 16.8491 28.8876 15.7571 28.8876 14.3944C28.8876 13.0131 28.4956 11.9211 27.7116 11.1184C26.9463 10.2971 25.9663 9.8864 24.7716 9.8864Z" fill="white"/>
<path d="M44.6735 18.7624V22.1504H42.6015C40.8655 22.1504 39.5308 21.7304 38.5975 20.8904C37.6828 20.0504 37.2255 18.6504 37.2255 16.6904V9.9704H35.0695V6.6384H37.2255V2.80239H41.1735V6.6384H44.6455V9.9704H41.1735V16.7464C41.1735 17.4931 41.3228 18.0157 41.6215 18.3144C41.9202 18.6131 42.4242 18.7624 43.1335 18.7624H44.6735Z" fill="white"/>
<path d="M47.0664 2.18639C47.0664 1.55173 47.2904 1.0384 47.7384 0.646396C48.1864 0.235729 48.7744 0.0303955 49.5024 0.0303955C50.2304 0.0303955 50.8184 0.235729 51.2664 0.646396C51.7144 1.0384 51.9384 1.55173 51.9384 2.18639C51.9384 2.8024 51.7144 3.31573 51.2664 3.72639C50.8184 4.1184 50.2304 4.3144 49.5024 4.3144C48.7744 4.3144 48.1864 4.1184 47.7384 3.72639C47.2904 3.31573 47.0664 2.8024 47.0664 2.18639ZM51.4624 6.6384V22.1504H47.5144V6.6384H51.4624Z" fill="white"/>
<path d="M62.2019 6.44239C63.7139 6.44239 65.0673 6.75973 66.2619 7.3944C67.4753 8.02906 68.4273 8.95306 69.1179 10.1664C69.8086 11.3611 70.1539 12.7704 70.1539 14.3944C70.1539 16.0184 69.8086 17.4277 69.1179 18.6224C68.4273 19.8171 67.4753 20.7411 66.2619 21.3944C65.0673 22.0291 63.7139 22.3464 62.2019 22.3464C60.6899 22.3464 59.3273 22.0291 58.1139 21.3944C56.9193 20.7411 55.9766 19.8171 55.2859 18.6224C54.5953 17.4277 54.2499 16.0184 54.2499 14.3944C54.2499 12.7704 54.5953 11.3611 55.2859 10.1664C55.9766 8.95306 56.9193 8.02906 58.1139 7.3944C59.3273 6.75973 60.6899 6.44239 62.2019 6.44239ZM62.2019 9.8584C61.1006 9.8584 60.1673 10.2504 59.4019 11.0344C58.6366 11.7997 58.2539 12.9197 58.2539 14.3944C58.2539 15.8691 58.6366 16.9984 59.4019 17.7824C60.1673 18.5477 61.1006 18.9304 62.2019 18.9304C63.3033 18.9304 64.2366 18.5477 65.0019 17.7824C65.7673 16.9984 66.1499 15.8691 66.1499 14.3944C66.1499 12.9197 65.7673 11.7997 65.0019 11.0344C64.2366 10.2504 63.3033 9.8584 62.2019 9.8584Z" fill="#FF6F37"/>
<path d="M82.1841 6.4144C83.9761 6.4144 85.4041 7.0024 86.4681 8.1784C87.5321 9.3544 88.0641 11.0064 88.0641 13.1344V22.1504H84.1441V13.5824C84.1441 12.3504 83.8268 11.3984 83.1921 10.7264C82.5574 10.0357 81.6894 9.6904 80.5881 9.6904C79.4681 9.6904 78.5721 10.0544 77.9001 10.7824C77.2281 11.5104 76.8921 12.5557 76.8921 13.9184V22.1504H72.9441V6.6384H76.8921V9.7464C77.3028 8.70106 77.9748 7.88906 78.9081 7.3104C79.8601 6.71306 80.9521 6.4144 82.1841 6.4144Z" fill="#FF6F37"/>
<path d="M96.8858 6.44239C98.7712 6.44239 100.283 6.91839 101.422 7.87039C102.561 8.8224 103.27 10.0917 103.55 11.6784H99.8538C99.7045 10.9317 99.3685 10.3344 98.8458 9.8864C98.3232 9.4384 97.6418 9.2144 96.8018 9.2144C96.1298 9.2144 95.6072 9.37306 95.2338 9.6904C94.8605 10.0077 94.6738 10.4371 94.6738 10.9784C94.6738 11.4077 94.8232 11.7531 95.1218 12.0144C95.4205 12.2757 95.7938 12.4811 96.2418 12.6304C96.6898 12.7797 97.3338 12.9571 98.1738 13.1624C99.3498 13.4237 100.302 13.7037 101.03 14.0024C101.777 14.2824 102.411 14.7397 102.934 15.3744C103.475 15.9904 103.746 16.8304 103.746 17.8944C103.746 19.2197 103.223 20.2931 102.178 21.1144C101.151 21.9357 99.7605 22.3464 98.0058 22.3464C95.9898 22.3464 94.3752 21.8984 93.1618 21.0024C91.9485 20.0877 91.2112 18.7904 90.9498 17.1104H94.7298C94.8232 17.8757 95.1592 18.4824 95.7378 18.9304C96.3165 19.3597 97.0725 19.5744 98.0058 19.5744C98.6778 19.5744 99.1912 19.4157 99.5458 19.0984C99.9005 18.7624 100.078 18.3331 100.078 17.8104C100.078 17.3624 99.9192 16.9984 99.6018 16.7184C99.3032 16.4384 98.9205 16.2237 98.4538 16.0744C98.0058 15.9251 97.3618 15.7477 96.5218 15.5424C95.3645 15.2811 94.4218 15.0197 93.6938 14.7584C92.9845 14.4784 92.3685 14.0397 91.8458 13.4424C91.3418 12.8451 91.0898 12.0237 91.0898 10.9784C91.0898 9.6344 91.6032 8.5424 92.6298 7.7024C93.6565 6.8624 95.0752 6.44239 96.8858 6.44239Z" fill="#FF6F37"/>
<path d="M109.962 18.0344V22.1504H105.706V18.0344H109.962Z" fill="#FF6F37"/>
</svg>
