<svg width="116" height="43" viewBox="0 0 116 43" fill="none" xmlns="http://www.w3.org/2000/svg">
<path d="M12.3484 31.9565L8.03643 24.3405H6.18843V31.9565H2.26843V12.4125H9.60443C11.1164 12.4125 12.4044 12.6832 13.4684 13.2245C14.5324 13.7472 15.3258 14.4659 15.8484 15.3805C16.3898 16.2765 16.6604 17.2845 16.6604 18.4045C16.6604 19.6925 16.2871 20.8592 15.5404 21.9045C14.7938 22.9312 13.6831 23.6405 12.2084 24.0325L16.8844 31.9565H12.3484ZM6.18843 21.4005H9.46443C10.5284 21.4005 11.3218 21.1485 11.8444 20.6445C12.3671 20.1219 12.6284 19.4032 12.6284 18.4885C12.6284 17.5925 12.3671 16.9019 11.8444 16.4165C11.3218 15.9125 10.5284 15.6605 9.46443 15.6605H6.18843V21.4005ZM19.1979 24.1445C19.1979 22.5765 19.5059 21.1859 20.1219 19.9725C20.7566 18.7592 21.6059 17.8259 22.6699 17.1725C23.7526 16.5192 24.9566 16.1925 26.2819 16.1925C27.4393 16.1925 28.4473 16.4259 29.3059 16.8925C30.1833 17.3592 30.8833 17.9472 31.4059 18.6565V16.4445H35.3539V31.9565H31.4059V29.6885C30.9019 30.4165 30.2019 31.0232 29.3059 31.5085C28.4286 31.9752 27.4113 32.2085 26.2539 32.2085C24.9473 32.2085 23.7526 31.8725 22.6699 31.2005C21.6059 30.5285 20.7566 29.5859 20.1219 28.3725C19.5059 27.1405 19.1979 25.7312 19.1979 24.1445ZM31.4059 24.2005C31.4059 23.2485 31.2193 22.4365 30.8459 21.7645C30.4726 21.0739 29.9686 20.5512 29.3339 20.1965C28.6993 19.8232 28.0179 19.6365 27.2899 19.6365C26.5619 19.6365 25.8899 19.8139 25.2739 20.1685C24.6579 20.5232 24.1539 21.0459 23.7619 21.7365C23.3886 22.4085 23.2019 23.2112 23.2019 24.1445C23.2019 25.0779 23.3886 25.8992 23.7619 26.6085C24.1539 27.2992 24.6579 27.8312 25.2739 28.2045C25.9086 28.5779 26.5806 28.7645 27.2899 28.7645C28.0179 28.7645 28.6993 28.5872 29.3339 28.2325C29.9686 27.8592 30.4726 27.3365 30.8459 26.6645C31.2193 25.9739 31.4059 25.1525 31.4059 24.2005ZM43.7465 19.6645V27.1685C43.7465 27.6912 43.8678 28.0739 44.1105 28.3165C44.3718 28.5405 44.8012 28.6525 45.3985 28.6525H47.2185V31.9565H44.7545C41.4505 31.9565 39.7985 30.3512 39.7985 27.1405V19.6645H37.9505V16.4445H39.7985V12.6085H43.7465V16.4445H47.2185V19.6645H43.7465ZM52.026 14.5965C51.3353 14.5965 50.7566 14.3819 50.29 13.9525C49.842 13.5045 49.618 12.9539 49.618 12.3005C49.618 11.6472 49.842 11.1059 50.29 10.6765C50.7566 10.2285 51.3353 10.0045 52.026 10.0045C52.7166 10.0045 53.286 10.2285 53.734 10.6765C54.2006 11.1059 54.434 11.6472 54.434 12.3005C54.434 12.9539 54.2006 13.5045 53.734 13.9525C53.286 14.3819 52.7166 14.5965 52.026 14.5965ZM53.958 16.4445V31.9565H50.038V16.4445H53.958Z" fill="#1F0A00"/>
<path d="M64.7189 32.2085C63.2256 32.2085 61.8816 31.8819 60.6869 31.2285C59.4923 30.5565 58.5496 29.6139 57.8589 28.4005C57.1869 27.1872 56.8509 25.7872 56.8509 24.2005C56.8509 22.6139 57.1963 21.2139 57.8869 20.0005C58.5963 18.7872 59.5576 17.8539 60.7709 17.2005C61.9843 16.5285 63.3376 16.1925 64.8309 16.1925C66.3243 16.1925 67.6776 16.5285 68.8909 17.2005C70.1043 17.8539 71.0563 18.7872 71.7469 20.0005C72.4563 21.2139 72.8109 22.6139 72.8109 24.2005C72.8109 25.7872 72.4469 27.1872 71.7189 28.4005C71.0096 29.6139 70.0389 30.5565 68.8069 31.2285C67.5936 31.8819 66.2309 32.2085 64.7189 32.2085ZM64.7189 28.7925C65.4283 28.7925 66.0909 28.6245 66.7069 28.2885C67.3416 27.9339 67.8456 27.4112 68.2189 26.7205C68.5923 26.0299 68.7789 25.1899 68.7789 24.2005C68.7789 22.7259 68.3869 21.5965 67.6029 20.8125C66.8376 20.0099 65.8949 19.6085 64.7749 19.6085C63.6549 19.6085 62.7123 20.0099 61.9469 20.8125C61.2003 21.5965 60.8269 22.7259 60.8269 24.2005C60.8269 25.6752 61.1909 26.8139 61.9189 27.6165C62.6656 28.4005 63.5989 28.7925 64.7189 28.7925ZM84.2824 16.2205C86.1304 16.2205 87.6237 16.8085 88.7624 17.9845C89.9011 19.1419 90.4704 20.7659 90.4704 22.8565V31.9565H86.5504V23.3885C86.5504 22.1565 86.2424 21.2139 85.6264 20.5605C85.0104 19.8885 84.1704 19.5525 83.1064 19.5525C82.0237 19.5525 81.1651 19.8885 80.5304 20.5605C79.9144 21.2139 79.6064 22.1565 79.6064 23.3885V31.9565H75.6864V16.4445H79.6064V18.3765C80.1291 17.7045 80.7917 17.1819 81.5944 16.8085C82.4157 16.4165 83.3117 16.2205 84.2824 16.2205ZM100.134 32.2085C98.8648 32.2085 97.7261 31.9845 96.7181 31.5365C95.7101 31.0699 94.9074 30.4445 94.3101 29.6605C93.7314 28.8765 93.4141 28.0085 93.3581 27.0565H97.3061C97.3808 27.6539 97.6701 28.1485 98.1741 28.5405C98.6968 28.9325 99.3408 29.1285 100.106 29.1285C100.853 29.1285 101.431 28.9792 101.842 28.6805C102.271 28.3819 102.486 27.9992 102.486 27.5325C102.486 27.0285 102.225 26.6552 101.702 26.4125C101.198 26.1512 100.386 25.8712 99.2661 25.5725C98.1088 25.2925 97.1568 25.0032 96.4101 24.7045C95.6821 24.4059 95.0474 23.9485 94.5061 23.3325C93.9834 22.7165 93.7221 21.8859 93.7221 20.8405C93.7221 19.9819 93.9648 19.1979 94.4501 18.4885C94.9541 17.7792 95.6634 17.2192 96.5781 16.8085C97.5114 16.3979 98.6034 16.1925 99.8541 16.1925C101.702 16.1925 103.177 16.6592 104.278 17.5925C105.379 18.5072 105.986 19.7485 106.098 21.3165H102.346C102.29 20.7005 102.029 20.2152 101.562 19.8605C101.114 19.4872 100.507 19.3005 99.7421 19.3005C99.0328 19.3005 98.4821 19.4312 98.0901 19.6925C97.7168 19.9539 97.5301 20.3179 97.5301 20.7845C97.5301 21.3072 97.7914 21.7085 98.3141 21.9885C98.8368 22.2499 99.6488 22.5205 100.75 22.8005C101.87 23.0805 102.794 23.3699 103.522 23.6685C104.25 23.9672 104.875 24.4339 105.398 25.0685C105.939 25.6845 106.219 26.5059 106.238 27.5325C106.238 28.4285 105.986 29.2312 105.482 29.9405C104.997 30.6499 104.287 31.2099 103.354 31.6205C102.439 32.0125 101.366 32.2085 100.134 32.2085ZM111.192 32.1525C110.483 32.1525 109.895 31.9379 109.428 31.5085C108.98 31.0605 108.756 30.5099 108.756 29.8565C108.756 29.2032 108.98 28.6619 109.428 28.2325C109.895 27.7845 110.483 27.5605 111.192 27.5605C111.883 27.5605 112.452 27.7845 112.9 28.2325C113.348 28.6619 113.572 29.2032 113.572 29.8565C113.572 30.5099 113.348 31.0605 112.9 31.5085C112.452 31.9379 111.883 32.1525 111.192 32.1525Z" fill="#FE5000"/>
</svg>
