<svg width="110" height="110" viewBox="0 0 110 110" fill="none" xmlns="http://www.w3.org/2000/svg">
<circle cx="55.0001" cy="55" r="55" fill="white"/>
<g clip-path="url(#clip0_2_148)">
<path d="M73.4251 54.45C69.3689 44.9625 61.0501 37.1937 50.6689 33.0687C50.4975 33.0032 50.3148 32.9725 50.1315 32.9787C49.9481 32.9848 49.7678 33.0276 49.6012 33.1045C49.4347 33.1813 49.2852 33.2908 49.1615 33.4263C49.0379 33.5619 48.9427 33.7208 48.8814 33.8937L36.5064 69.6437C36.4281 69.8532 36.4021 70.0785 36.4306 70.3003C36.4591 70.5221 36.5412 70.7336 36.6699 70.9164C36.7986 71.0993 36.9699 71.248 37.169 71.3497C37.3681 71.4514 37.5891 71.5029 37.8126 71.5L38.3626 71.3625L43.3126 69.2312V72.875C43.3126 73.2397 43.4575 73.5894 43.7154 73.8473C43.9732 74.1051 44.323 74.25 44.6876 74.25C45.0523 74.25 45.402 74.1051 45.6599 73.8473C45.9178 73.5894 46.0626 73.2397 46.0626 72.875V67.9937L48.8126 66.7562V75.625C48.8126 75.9897 48.9575 76.3394 49.2154 76.5973C49.4732 76.8551 49.823 77 50.1876 77C50.5523 77 50.902 76.8551 51.1599 76.5973C51.4178 76.3394 51.5626 75.9897 51.5626 75.625V65.5875L59.8126 61.9437V68.75C59.8126 69.1147 59.9575 69.4644 60.2154 69.7223C60.4732 69.9801 60.823 70.125 61.1876 70.125C61.5523 70.125 61.902 69.9801 62.1599 69.7223C62.4178 69.4644 62.5626 69.1147 62.5626 68.75V60.7062L72.7376 56.2375C73.0621 56.0874 73.3154 55.8168 73.4438 55.4831C73.5721 55.1494 73.5654 54.7788 73.4251 54.45ZM49.5001 49.5C49.5001 48.8201 49.7017 48.1555 50.0795 47.5902C50.4572 47.0249 50.994 46.5843 51.6222 46.3241C52.2503 46.064 52.9415 45.9959 53.6083 46.1285C54.2751 46.2612 54.8876 46.5886 55.3683 47.0693C55.8491 47.55 56.1765 48.1625 56.3091 48.8294C56.4417 49.4962 56.3736 50.1873 56.1135 50.8155C55.8533 51.4436 55.4127 51.9804 54.8474 52.3582C54.2821 52.7359 53.6175 52.9375 52.9376 52.9375C52.026 52.9375 51.1516 52.5753 50.507 51.9307C49.8623 51.286 49.5001 50.4117 49.5001 49.5ZM49.8439 58.7812C49.8439 59.2571 49.7028 59.7224 49.4384 60.1181C49.174 60.5138 48.7982 60.8222 48.3585 61.0043C47.9188 61.1864 47.435 61.2341 46.9682 61.1412C46.5014 61.0484 46.0727 60.8192 45.7362 60.4827C45.3996 60.1462 45.1705 59.7174 45.0776 59.2507C44.9848 58.7839 45.0324 58.3001 45.2146 57.8604C45.3967 57.4207 45.7051 57.0449 46.1008 56.7805C46.4965 56.5161 46.9617 56.375 47.4376 56.375C48.0758 56.375 48.6879 56.6285 49.1391 57.0798C49.5904 57.531 49.8439 58.143 49.8439 58.7812ZM57.0626 54.3125C57.4706 54.3125 57.8693 54.4334 58.2085 54.6601C58.5477 54.8867 58.812 55.2088 58.9681 55.5857C59.1242 55.9626 59.1651 56.3773 59.0855 56.7773C59.0059 57.1774 58.8095 57.5449 58.521 57.8334C58.2326 58.1218 57.8651 58.3183 57.465 58.3978C57.0649 58.4774 56.6502 58.4366 56.2734 58.2805C55.8965 58.1244 55.5744 57.86 55.3477 57.5208C55.1211 57.1817 55.0001 56.7829 55.0001 56.375C55.0001 55.828 55.2174 55.3034 55.6042 54.9166C55.991 54.5298 56.5156 54.3125 57.0626 54.3125ZM68.0626 55.3437C64.4876 48.0562 58.0939 42.075 50.1876 38.6375L51.0126 36.2312C59.6751 39.9437 66.5501 46.475 70.3314 54.3125L68.0626 55.3437Z" fill="#202020"/>
</g>
<defs>
<clipPath id="clip0_2_148">
<rect width="44" height="44" fill="white" transform="translate(33.0001 33)"/>
</clipPath>
</defs>
</svg>
