<svg width="110" height="110" viewBox="0 0 110 110" fill="none" xmlns="http://www.w3.org/2000/svg">
<circle cx="55" cy="55" r="55" fill="white"/>
<path d="M42.625 72.1875C44.9032 72.1875 46.75 70.3407 46.75 68.0625C46.75 65.7843 44.9032 63.9375 42.625 63.9375C40.3468 63.9375 38.5 65.7843 38.5 68.0625C38.5 70.3407 40.3468 72.1875 42.625 72.1875Z" fill="#1F0A00"/>
<path d="M67.375 72.1875C69.6532 72.1875 71.5 70.3407 71.5 68.0625C71.5 65.7843 69.6532 63.9375 67.375 63.9375C65.0968 63.9375 63.25 65.7843 63.25 68.0625C63.25 70.3407 65.0968 72.1875 67.375 72.1875Z" fill="#1F0A00"/>
<path d="M75.625 57.0625L72.875 54.3125L68.75 46.0625H60.5V61.1875H75.625V57.0625Z" fill="#1F0A00"/>
<path d="M34.375 37.8125H57.75V61.1875H34.375V37.8125Z" fill="#1F0A00"/>
<path d="M34.375 68.0625H35.75C35.745 66.5741 36.228 65.1252 37.125 63.9375H34.375V68.0625ZM49.5 68.0625H60.5C60.495 66.5741 60.978 65.1252 61.875 63.9375H48.125C49.022 65.1252 49.505 66.5741 49.5 68.0625V68.0625ZM74.25 68.0625H75.625V63.9375H72.875C73.772 65.1252 74.255 66.5741 74.25 68.0625Z" fill="#1F0A00"/>
</svg>
