<svg width="111" height="111" viewBox="0 0 111 111" fill="none" xmlns="http://www.w3.org/2000/svg">
<circle cx="55.8262" cy="55.7911" r="55" fill="white"/>
<g clip-path="url(#clip0_19_125)">
<path d="M74.3887 48.5724H70.8824L59.6074 35.9911C59.3613 35.7176 59.0165 35.5531 58.6491 35.5338C58.2816 35.5144 57.9216 35.6419 57.648 35.888C57.3745 36.1342 57.21 36.4789 57.1907 36.8463C57.1713 37.2138 57.2988 37.5739 57.5449 37.8474L67.1699 48.6411H43.1074L52.7324 37.8474C52.8543 37.712 52.9483 37.5539 53.0091 37.3821C53.0699 37.2103 53.0962 37.0283 53.0867 36.8463C53.0771 36.6644 53.0318 36.4861 52.9533 36.3217C52.8748 36.1573 52.7647 36.0099 52.6293 35.888C52.4939 35.7661 52.3358 35.6721 52.164 35.6113C51.9922 35.5506 51.8102 35.5242 51.6283 35.5338C51.4463 35.5434 51.268 35.5887 51.1036 35.6671C50.9392 35.7456 50.7918 35.8557 50.6699 35.9911L39.4637 48.5724H35.8887C35.524 48.5724 35.1743 48.7173 34.9164 48.9751C34.6585 49.233 34.5137 49.5827 34.5137 49.9474C34.5137 50.3121 34.6585 50.6618 34.9164 50.9197C35.1743 51.1775 35.524 51.3224 35.8887 51.3224H74.3887C74.7533 51.3224 75.1031 51.1775 75.3609 50.9197C75.6188 50.6618 75.7637 50.3121 75.7637 49.9474C75.7637 49.5827 75.6188 49.233 75.3609 48.9751C75.1031 48.7173 74.7533 48.5724 74.3887 48.5724Z" fill="#202020"/>
<path d="M75.7637 69.1974H74.3887V66.4474C74.3887 66.0827 74.2438 65.733 73.9859 65.4751C73.7281 65.2173 73.3783 65.0724 73.0137 65.0724C72.649 65.0724 72.2993 65.2173 72.0414 65.4751C71.7835 65.733 71.6387 66.0827 71.6387 66.4474V69.1974H68.2012L71.5012 61.4974C71.647 61.1601 71.6529 60.7786 71.5176 60.437C71.3822 60.0953 71.1166 59.8214 70.7793 59.6755C70.442 59.5297 70.0605 59.5238 69.7189 59.6591C69.3772 59.7945 69.1033 60.0601 68.9574 60.3974L64.0762 71.9474H71.6387V74.6974C71.6387 75.0621 71.7835 75.4118 72.0414 75.6697C72.2993 75.9275 72.649 76.0724 73.0137 76.0724C73.3783 76.0724 73.7281 75.9275 73.9859 75.6697C74.2438 75.4118 74.3887 75.0621 74.3887 74.6974V71.9474H75.7637C76.1283 71.9474 76.4781 71.8025 76.7359 71.5447C76.9938 71.2868 77.1387 70.9371 77.1387 70.5724C77.1387 70.2077 76.9938 69.858 76.7359 69.6001C76.4781 69.3423 76.1283 69.1974 75.7637 69.1974Z" fill="#202020"/>
<path d="M63.3887 73.3224H58.0949L62.1512 68.5787C62.9843 67.5037 63.3897 66.1583 63.2889 64.802C63.1882 63.4457 62.5885 62.1749 61.6058 61.2348C60.623 60.2948 59.3267 59.7522 57.9673 59.7118C56.6079 59.6714 55.2818 60.1361 54.2449 61.0162C53.9714 61.2623 53.8069 61.607 53.7876 61.9745C53.7682 62.3419 53.8957 62.702 54.1418 62.9755C54.388 63.249 54.7327 63.4136 55.1001 63.4329C55.4676 63.4522 55.8277 63.3248 56.1012 63.0787C56.4969 62.7166 56.9899 62.4781 57.5194 62.3926C58.0489 62.3071 58.5919 62.3784 59.0815 62.5976C59.571 62.8168 59.9858 63.1744 60.2747 63.6263C60.5636 64.0783 60.714 64.6048 60.7074 65.1412C60.7087 65.7688 60.4898 66.3771 60.0887 66.8599L52.1824 76.0724H63.3887C63.7534 76.0724 64.1031 75.9275 64.361 75.6697C64.6188 75.4118 64.7637 75.0621 64.7637 74.6974C64.7637 74.3327 64.6188 73.983 64.361 73.7251C64.1031 73.4673 63.7534 73.3224 63.3887 73.3224Z" fill="#202020"/>
<path d="M58.0262 65.0724C57.2025 65.7091 56.1684 66.0108 55.1315 65.9169C54.0947 65.8231 53.1316 65.3406 52.4356 64.5663C51.7396 63.792 51.3621 62.7832 51.3789 61.7422C51.3957 60.7012 51.8056 59.705 52.5262 58.9536C53.4966 58.0826 54.6598 57.4541 55.9201 57.1195C57.1805 56.785 58.5022 56.754 59.7769 57.029C61.0515 57.3041 62.2428 57.8774 63.2531 58.7019C64.2633 59.5264 65.0638 60.5787 65.5887 61.7724L66.6199 59.3661C66.941 58.6304 67.4698 58.0043 68.1415 57.5647C68.8131 57.1251 69.5984 56.891 70.4012 56.8911L71.6387 57.0974L72.2574 54.1411H38.0887L41.3887 70.6411H53.3512L58.0262 65.0724Z" fill="#202020"/>
</g>
<defs>
<clipPath id="clip0_19_125">
<rect width="44" height="44" fill="white" transform="translate(33.8262 33.7911)"/>
</clipPath>
</defs>
</svg>
